<svg xmlns="http://www.w3.org/2000/svg" width="32" height="32" viewBox="0 0 32 32"><g transform="translate(-10 -150)"><g transform="translate(10 150)"><path d="M40.629,162.8H11.371c-1.26,0-1.371,1.431-1.371,3.2s.111,3.2,1.371,3.2H40.629c1.26,0,1.371-1.431,1.371-3.2S41.889,162.8,40.629,162.8Zm0,12.8H11.371c-1.26,0-1.371,1.431-1.371,3.2s.111,3.2,1.371,3.2H40.629c1.26,0,1.371-1.431,1.371-3.2S41.889,175.6,40.629,175.6ZM11.371,156.4H40.629c1.26,0,1.371-1.431,1.371-3.2s-.111-3.2-1.371-3.2H11.371c-1.26,0-1.371,1.431-1.371,3.2S10.111,156.4,11.371,156.4Z" transform="translate(-10 -150)" fill="#fff"/></g></g></svg>