<svg xmlns="http://www.w3.org/2000/svg" width="47.999" height="48" viewBox="0 0 47.999 48"><g transform="translate(-10 -10)"><g transform="translate(10 10)"><path d="M31.331-500.861a24.1,24.1,0,0,0-21.257,22.013l-.074.969,1.332.043c1.129.021,1.364.064,1.556.235a.872.872,0,0,1,.022,1.14c-.192.245-.288.256-1.556.288L10-476.132l.074.969a25.047,25.047,0,0,0,1.513,6.734,24.06,24.06,0,0,0,20.638,15.354l.895.074.043-1.343c.043-1.545.149-1.779.831-1.779s.789.235.831,1.769l.043,1.321h.352a28.148,28.148,0,0,0,4.1-.6,23.925,23.925,0,0,0,11.614-6.435,23.924,23.924,0,0,0,6.435-11.614,28.148,28.148,0,0,0,.6-4.1v-.352l-1.321-.043c-1.534-.043-1.769-.149-1.769-.831s.235-.789,1.779-.831L58-477.879l-.074-.895a24.059,24.059,0,0,0-15.353-20.639,25.045,25.045,0,0,0-6.734-1.513L34.869-501l-.043,1.353c-.032,1.268-.043,1.364-.288,1.556a.87.87,0,0,1-1.14-.022c-.17-.192-.213-.426-.235-1.545l-.043-1.321-.49.011C32.354-500.957,31.768-500.915,31.331-500.861Zm3.207,6.9.256.2.032,7.085.022,7.085.32.128a2.82,2.82,0,0,1,1.524,2.45,2.663,2.663,0,0,1-2.685,2.7,2.79,2.79,0,0,1-2.461-1.524l-.128-.309-3.676-.031-3.676-.032-.2-.256a1.062,1.062,0,0,1-.2-.544,1.063,1.063,0,0,1,.2-.543l.2-.256,3.676-.032,3.676-.032.128-.309a3.211,3.211,0,0,1,1.278-1.278l.32-.128.022-7.085.032-7.085.256-.2a1.062,1.062,0,0,1,.543-.2A1.058,1.058,0,0,1,34.538-493.957Z" transform="translate(-10 501)" fill="#fff"/></g></g></svg>