<svg xmlns="http://www.w3.org/2000/svg" width="56" height="56" viewBox="0 0 56 56">
  <g id="a5834ace5d2eff85a7797fefc2ea31bc" transform="translate(-10 -10)">
    <path id="Path_54" data-name="Path 54" d="M38,66A28,28,0,1,1,66,38,28.067,28.067,0,0,1,38,66Zm0-53.646A25.646,25.646,0,1,0,63.646,38,25.7,25.7,0,0,0,38,12.354Z" fill="#6a010b"/>
    <path id="Path_55" data-name="Path 55" d="M438.2,196.98a3.8,3.8,0,1,1,3.784,3.424A3.714,3.714,0,0,1,438.2,196.98Zm1.512-29.66V162.3h4.537v5.02l-1.01,21.216h-2.522Z" transform="translate(-403.984 -142.975)" fill="#6a010b"/>
  </g>
</svg>
