<svg xmlns="http://www.w3.org/2000/svg" width="56" height="56" viewBox="0 0 56 56">
  <g id="_03928433e58f61fbc156c6951063c456" data-name="03928433e58f61fbc156c6951063c456" transform="translate(-10 -10)">
    <path id="Path_53" data-name="Path 53" d="M48.543,25.869a1.743,1.743,0,0,0-2.389.64L34.966,45.9,28.7,40.12a1.75,1.75,0,1,0-2.554,2.394l8,7.377a1.751,1.751,0,0,0,2.474.08c.211-.2,12.566-21.714,12.566-21.714A1.751,1.751,0,0,0,48.543,25.869ZM38,10A28,28,0,1,0,66,38,28,28,0,0,0,38,10Zm0,52.5A24.5,24.5,0,1,1,62.5,38,24.5,24.5,0,0,1,38,62.5Z" fill="#005a48"/>
  </g>
</svg>
